<?xml version="1.0" encoding="UTF-8" standalone="no"?>
<!-- Created with Inkscape (http://www.inkscape.org/) -->

<svg
   width="137.41031mm"
   height="31.876457mm"
   viewBox="0 0 137.41031 31.876457"
   version="1.1"
   id="svg5"
   inkscape:version="1.2.1 (1:1.2.1+202210291243+9c6d41e410)"
   sodipodi:docname="low-high.svg"
   xmlns:inkscape="http://www.inkscape.org/namespaces/inkscape"
   xmlns:sodipodi="http://sodipodi.sourceforge.net/DTD/sodipodi-0.dtd"
   xmlns="http://www.w3.org/2000/svg"
   xmlns:svg="http://www.w3.org/2000/svg"
   xmlns:ns3="http://www.iki.fi/pav/software/textext/">
  <sodipodi:namedview
     id="namedview7"
     pagecolor="#ffffff"
     bordercolor="#000000"
     borderopacity="0.25"
     inkscape:showpageshadow="2"
     inkscape:pageopacity="0.0"
     inkscape:pagecheckerboard="0"
     inkscape:deskcolor="#d1d1d1"
     inkscape:document-units="mm"
     showgrid="false"
     inkscape:zoom="1.829812"
     inkscape:cx="300.57733"
     inkscape:cy="87.987181"
     inkscape:window-width="2192"
     inkscape:window-height="1169"
     inkscape:window-x="0"
     inkscape:window-y="27"
     inkscape:window-maximized="1"
     inkscape:current-layer="layer1" />
  <defs
     id="defs2">
    <marker
       style="overflow:visible"
       id="Arrow2"
       refX="0"
       refY="0"
       orient="auto-start-reverse"
       inkscape:stockid="Arrow2"
       markerWidth="7.6999998"
       markerHeight="5.5999999"
       viewBox="0 0 7.7 5.6"
       inkscape:isstock="true"
       inkscape:collect="always"
       preserveAspectRatio="xMidYMid">
      <path
         transform="scale(0.7)"
         d="M -2,-4 9,0 -2,4 c 2,-2.33 2,-5.66 0,-8 z"
         style="fill:context-stroke;fill-rule:evenodd;stroke:none"
         id="arrow2L" />
    </marker>
    <marker
       style="overflow:visible"
       id="Arrow2-6"
       refX="0"
       refY="0"
       orient="auto-start-reverse"
       inkscape:stockid="Arrow2"
       markerWidth="7.6999998"
       markerHeight="5.5999999"
       viewBox="0 0 7.7 5.6"
       inkscape:isstock="true"
       inkscape:collect="always"
       preserveAspectRatio="xMidYMid">
      <path
         transform="scale(0.7)"
         d="M -2,-4 9,0 -2,4 c 2,-2.33 2,-5.66 0,-8 z"
         style="fill:context-stroke;fill-rule:evenodd;stroke:none"
         id="arrow2L-3" />
    </marker>
  </defs>
  <g
     inkscape:label="Layer 1"
     inkscape:groupmode="layer"
     id="layer1"
     transform="translate(-32.417561,-115.66742)">
    <g
       id="g2435"
       transform="translate(6.0623075,5.6365272)">
      <rect
         style="fill:#ffffff;stroke:#080808;stroke-width:1.5;stroke-miterlimit:5.1;stroke-dasharray:none;paint-order:stroke fill markers"
         id="rect234"
         width="25.690855"
         height="26.703451"
         x="28.753206"
         y="112.65376"
         ry="0" />
      <circle
         style="fill:#ff0000;fill-opacity:1;stroke:#080808;stroke-width:0;stroke-miterlimit:5.1;stroke-dasharray:none;paint-order:stroke fill markers"
         id="path950"
         cx="28.386889"
         cy="139.87572"
         r="2.0316348" />
      <circle
         style="fill:#ff0000;fill-opacity:1;stroke:#080808;stroke-width:0;stroke-miterlimit:5.1;stroke-dasharray:none;paint-order:stroke fill markers"
         id="path950-3"
         cx="54.999992"
         cy="139.87572"
         r="2.0316348" />
      <circle
         style="fill:#ff0000;fill-opacity:1;stroke:#080808;stroke-width:0;stroke-miterlimit:5.1;stroke-dasharray:none;paint-order:stroke fill markers"
         id="path950-6"
         cx="28.386889"
         cy="112.14941"
         r="2.0316348" />
      <circle
         style="fill:#ff0000;fill-opacity:1;stroke:#080808;stroke-width:0;stroke-miterlimit:5.1;stroke-dasharray:none;paint-order:stroke fill markers"
         id="path950-7"
         cx="54.999992"
         cy="112.14941"
         r="2.0316348" />
    </g>
    <g
       id="g2428"
       transform="translate(9.986751,5.5567307)">
      <rect
         style="fill:#ffffff;stroke:#080808;stroke-width:1.5;stroke-miterlimit:5.1;stroke-dasharray:none;paint-order:stroke fill markers"
         id="rect234-3"
         width="25.690855"
         height="26.703451"
         x="78.738937"
         y="112.64668"
         ry="0" />
      <circle
         style="fill:#ff0000;fill-opacity:1;stroke:#080808;stroke-width:0;stroke-miterlimit:5.1;stroke-dasharray:none;paint-order:stroke fill markers"
         id="path950-5"
         cx="78.37262"
         cy="139.86864"
         r="2.0316348" />
      <circle
         style="fill:#ff0000;fill-opacity:1;stroke:#080808;stroke-width:0;stroke-miterlimit:5.1;stroke-dasharray:none;paint-order:stroke fill markers"
         id="path950-3-6"
         cx="104.98572"
         cy="139.86864"
         r="2.0316348" />
      <circle
         style="fill:#ff0000;fill-opacity:1;stroke:#080808;stroke-width:0;stroke-miterlimit:5.1;stroke-dasharray:none;paint-order:stroke fill markers"
         id="path950-6-2"
         cx="78.37262"
         cy="112.14233"
         r="2.0316348" />
      <circle
         style="fill:#ff0000;fill-opacity:1;stroke:#080808;stroke-width:0;stroke-miterlimit:5.1;stroke-dasharray:none;paint-order:stroke fill markers"
         id="path950-7-9"
         cx="104.98572"
         cy="112.14233"
         r="2.0316348" />
      <path
         style="fill:none;fill-opacity:1;stroke:#080808;stroke-width:0.7;stroke-miterlimit:5.1;stroke-dasharray:none;paint-order:stroke fill markers"
         d="M 78.429885,118.07826 H 104.73884"
         id="path1654" />
      <path
         style="fill:none;fill-opacity:1;stroke:#080808;stroke-width:0.7;stroke-miterlimit:5.1;stroke-dasharray:none;paint-order:stroke fill markers"
         d="M 78.676766,123.83728 H 104.98572"
         id="path1654-0" />
      <path
         style="fill:none;fill-opacity:1;stroke:#080808;stroke-width:0.7;stroke-miterlimit:5.1;stroke-dasharray:none;paint-order:stroke fill markers"
         d="M 78.676763,129.38812 H 104.98572"
         id="path1654-9" />
      <path
         style="fill:none;fill-opacity:1;stroke:#080808;stroke-width:0.7;stroke-miterlimit:5.1;stroke-dasharray:none;paint-order:stroke fill markers"
         d="M 78.372617,134.54637 H 104.68158"
         id="path1654-3" />
      <path
         style="fill:none;fill-opacity:1;stroke:#080808;stroke-width:0.7;stroke-miterlimit:5.1;stroke-dasharray:none;paint-order:stroke fill markers"
         d="m 83.745032,112.14233 v 27.71215"
         id="path1654-6" />
      <path
         style="fill:none;fill-opacity:1;stroke:#080808;stroke-width:0.7;stroke-miterlimit:5.1;stroke-dasharray:none;paint-order:stroke fill markers"
         d="m 89.234558,112.14233 v 27.71215"
         id="path1654-6-0" />
      <path
         style="fill:none;fill-opacity:1;stroke:#080808;stroke-width:0.7;stroke-miterlimit:5.1;stroke-dasharray:none;paint-order:stroke fill markers"
         d="m 94.580101,111.7605 v 27.71215"
         id="path1654-6-6" />
      <path
         style="fill:none;fill-opacity:1;stroke:#080808;stroke-width:0.7;stroke-miterlimit:5.1;stroke-dasharray:none;paint-order:stroke fill markers"
         d="m 99.925644,111.7605 v 27.71215"
         id="path1654-6-2" />
      <circle
         style="fill:#0000ff;fill-opacity:1;stroke:#080808;stroke-width:0;stroke-miterlimit:5.1;stroke-dasharray:none;paint-order:stroke fill markers"
         id="path950-7-6-0"
         cx="89.245865"
         cy="112.05379"
         r="1.1032015" />
      <circle
         style="fill:#0000ff;fill-opacity:1;stroke:#080808;stroke-width:0;stroke-miterlimit:5.1;stroke-dasharray:none;paint-order:stroke fill markers"
         id="path950-7-6"
         cx="78.330894"
         cy="112.18122"
         r="1.1032015" />
      <circle
         style="fill:#0000ff;fill-opacity:1;stroke:#080808;stroke-width:0;stroke-miterlimit:5.1;stroke-dasharray:none;paint-order:stroke fill markers"
         id="path950-7-6-8"
         cx="104.97232"
         cy="112.117"
         r="1.1032015" />
      <circle
         style="fill:#0000ff;fill-opacity:1;stroke:#080808;stroke-width:0;stroke-miterlimit:5.1;stroke-dasharray:none;paint-order:stroke fill markers"
         id="path950-7-6-7"
         cx="78.34314"
         cy="139.88528"
         r="1.1032015" />
      <circle
         style="fill:#0000ff;fill-opacity:1;stroke:#080808;stroke-width:0;stroke-miterlimit:5.1;stroke-dasharray:none;paint-order:stroke fill markers"
         id="path950-7-6-9"
         cx="104.98375"
         cy="139.90138"
         r="1.1032015" />
      <circle
         style="fill:#0000ff;fill-opacity:1;stroke:#080808;stroke-width:0;stroke-miterlimit:5.1;stroke-dasharray:none;paint-order:stroke fill markers"
         id="path950-7-6-2"
         cx="83.742462"
         cy="112.05917"
         r="1.1032015" />
      <circle
         style="fill:#0000ff;fill-opacity:1;stroke:#080808;stroke-width:0;stroke-miterlimit:5.1;stroke-dasharray:none;paint-order:stroke fill markers"
         id="path950-7-6-23"
         cx="94.620972"
         cy="112.01277"
         r="1.1032015" />
      <circle
         style="fill:#0000ff;fill-opacity:1;stroke:#080808;stroke-width:0;stroke-miterlimit:5.1;stroke-dasharray:none;paint-order:stroke fill markers"
         id="path950-7-6-75"
         cx="99.948776"
         cy="112.03931"
         r="1.1032015" />
      <circle
         style="fill:#0000ff;fill-opacity:1;stroke:#080808;stroke-width:0;stroke-miterlimit:5.1;stroke-dasharray:none;paint-order:stroke fill markers"
         id="path950-7-6-0-9"
         cx="89.232941"
         cy="118.00782"
         r="1.1032015" />
      <circle
         style="fill:#0000ff;fill-opacity:1;stroke:#080808;stroke-width:0;stroke-miterlimit:5.1;stroke-dasharray:none;paint-order:stroke fill markers"
         id="path950-7-6-22"
         cx="78.31797"
         cy="118.13528"
         r="1.1032015" />
      <circle
         style="fill:#0000ff;fill-opacity:1;stroke:#080808;stroke-width:0;stroke-miterlimit:5.1;stroke-dasharray:none;paint-order:stroke fill markers"
         id="path950-7-6-8-8"
         cx="104.95939"
         cy="118.07104"
         r="1.1032015" />
      <circle
         style="fill:#0000ff;fill-opacity:1;stroke:#080808;stroke-width:0;stroke-miterlimit:5.1;stroke-dasharray:none;paint-order:stroke fill markers"
         id="path950-7-6-2-9"
         cx="83.729538"
         cy="118.01322"
         r="1.1032015" />
      <circle
         style="fill:#0000ff;fill-opacity:1;stroke:#080808;stroke-width:0;stroke-miterlimit:5.1;stroke-dasharray:none;paint-order:stroke fill markers"
         id="path950-7-6-23-7"
         cx="94.608055"
         cy="117.96683"
         r="1.1032015" />
      <circle
         style="fill:#0000ff;fill-opacity:1;stroke:#080808;stroke-width:0;stroke-miterlimit:5.1;stroke-dasharray:none;paint-order:stroke fill markers"
         id="path950-7-6-75-3"
         cx="99.935852"
         cy="117.99335"
         r="1.1032015" />
      <circle
         style="fill:#0000ff;fill-opacity:1;stroke:#080808;stroke-width:0;stroke-miterlimit:5.1;stroke-dasharray:none;paint-order:stroke fill markers"
         id="path950-7-6-0-6"
         cx="89.239983"
         cy="123.81873"
         r="1.1032015" />
      <circle
         style="fill:#0000ff;fill-opacity:1;stroke:#080808;stroke-width:0;stroke-miterlimit:5.1;stroke-dasharray:none;paint-order:stroke fill markers"
         id="path950-7-6-1"
         cx="78.32502"
         cy="123.94616"
         r="1.1032015" />
      <circle
         style="fill:#0000ff;fill-opacity:1;stroke:#080808;stroke-width:0;stroke-miterlimit:5.1;stroke-dasharray:none;paint-order:stroke fill markers"
         id="path950-7-6-8-2"
         cx="104.96644"
         cy="123.88194"
         r="1.1032015" />
      <circle
         style="fill:#0000ff;fill-opacity:1;stroke:#080808;stroke-width:0;stroke-miterlimit:5.1;stroke-dasharray:none;paint-order:stroke fill markers"
         id="path950-7-6-2-93"
         cx="83.736588"
         cy="123.8241"
         r="1.1032015" />
      <circle
         style="fill:#0000ff;fill-opacity:1;stroke:#080808;stroke-width:0;stroke-miterlimit:5.1;stroke-dasharray:none;paint-order:stroke fill markers"
         id="path950-7-6-23-1"
         cx="94.615097"
         cy="123.77771"
         r="1.1032015" />
      <circle
         style="fill:#0000ff;fill-opacity:1;stroke:#080808;stroke-width:0;stroke-miterlimit:5.1;stroke-dasharray:none;paint-order:stroke fill markers"
         id="path950-7-6-75-9"
         cx="99.942909"
         cy="123.80424"
         r="1.1032015" />
      <circle
         style="fill:#0000ff;fill-opacity:1;stroke:#080808;stroke-width:0;stroke-miterlimit:5.1;stroke-dasharray:none;paint-order:stroke fill markers"
         id="path950-7-6-0-4"
         cx="89.262459"
         cy="129.35843"
         r="1.1032015" />
      <circle
         style="fill:#0000ff;fill-opacity:1;stroke:#080808;stroke-width:0;stroke-miterlimit:5.1;stroke-dasharray:none;paint-order:stroke fill markers"
         id="path950-7-6-78"
         cx="78.347488"
         cy="129.48587"
         r="1.1032015" />
      <circle
         style="fill:#0000ff;fill-opacity:1;stroke:#080808;stroke-width:0;stroke-miterlimit:5.1;stroke-dasharray:none;paint-order:stroke fill markers"
         id="path950-7-6-8-4"
         cx="104.98891"
         cy="129.42165"
         r="1.1032015" />
      <circle
         style="fill:#0000ff;fill-opacity:1;stroke:#080808;stroke-width:0;stroke-miterlimit:5.1;stroke-dasharray:none;paint-order:stroke fill markers"
         id="path950-7-6-2-5"
         cx="83.759056"
         cy="129.36382"
         r="1.1032015" />
      <circle
         style="fill:#0000ff;fill-opacity:1;stroke:#080808;stroke-width:0;stroke-miterlimit:5.1;stroke-dasharray:none;paint-order:stroke fill markers"
         id="path950-7-6-23-0"
         cx="94.637573"
         cy="129.31741"
         r="1.1032015" />
      <circle
         style="fill:#0000ff;fill-opacity:1;stroke:#080808;stroke-width:0;stroke-miterlimit:5.1;stroke-dasharray:none;paint-order:stroke fill markers"
         id="path950-7-6-75-36"
         cx="99.96537"
         cy="129.34395"
         r="1.1032015" />
      <circle
         style="fill:#0000ff;fill-opacity:1;stroke:#080808;stroke-width:0;stroke-miterlimit:5.1;stroke-dasharray:none;paint-order:stroke fill markers"
         id="path950-7-6-0-1"
         cx="89.206406"
         cy="134.61432"
         r="1.1032015" />
      <circle
         style="fill:#0000ff;fill-opacity:1;stroke:#080808;stroke-width:0;stroke-miterlimit:5.1;stroke-dasharray:none;paint-order:stroke fill markers"
         id="path950-7-6-06"
         cx="78.291435"
         cy="134.74176"
         r="1.1032015" />
      <circle
         style="fill:#0000ff;fill-opacity:1;stroke:#080808;stroke-width:0;stroke-miterlimit:5.1;stroke-dasharray:none;paint-order:stroke fill markers"
         id="path950-7-6-8-3"
         cx="104.93286"
         cy="134.67754"
         r="1.1032015" />
      <circle
         style="fill:#0000ff;fill-opacity:1;stroke:#080808;stroke-width:0;stroke-miterlimit:5.1;stroke-dasharray:none;paint-order:stroke fill markers"
         id="path950-7-6-2-2"
         cx="83.703003"
         cy="134.61971"
         r="1.1032015" />
      <circle
         style="fill:#0000ff;fill-opacity:1;stroke:#080808;stroke-width:0;stroke-miterlimit:5.1;stroke-dasharray:none;paint-order:stroke fill markers"
         id="path950-7-6-23-06"
         cx="94.581512"
         cy="134.5733"
         r="1.1032015" />
      <circle
         style="fill:#0000ff;fill-opacity:1;stroke:#080808;stroke-width:0;stroke-miterlimit:5.1;stroke-dasharray:none;paint-order:stroke fill markers"
         id="path950-7-6-75-1"
         cx="99.909325"
         cy="134.59984"
         r="1.1032015" />
      <g
         id="g2232"
         transform="translate(-0.0080499,-3.1481239)">
        <circle
           style="fill:#0000ff;fill-opacity:1;stroke:#080808;stroke-width:0;stroke-miterlimit:5.1;stroke-dasharray:none;paint-order:stroke fill markers"
           id="path950-7-6-0-93"
           cx="89.267792"
           cy="142.90781"
           r="1.1032015" />
        <circle
           style="fill:#0000ff;fill-opacity:1;stroke:#080808;stroke-width:0;stroke-miterlimit:5.1;stroke-dasharray:none;paint-order:stroke fill markers"
           id="path950-7-6-74"
           cx="78.352821"
           cy="143.03525"
           r="1.1032015" />
        <circle
           style="fill:#0000ff;fill-opacity:1;stroke:#080808;stroke-width:0;stroke-miterlimit:5.1;stroke-dasharray:none;paint-order:stroke fill markers"
           id="path950-7-6-8-5"
           cx="104.99423"
           cy="142.97102"
           r="1.1032015" />
        <circle
           style="fill:#0000ff;fill-opacity:1;stroke:#080808;stroke-width:0;stroke-miterlimit:5.1;stroke-dasharray:none;paint-order:stroke fill markers"
           id="path950-7-6-2-25"
           cx="83.764397"
           cy="142.91319"
           r="1.1032015" />
        <circle
           style="fill:#0000ff;fill-opacity:1;stroke:#080808;stroke-width:0;stroke-miterlimit:5.1;stroke-dasharray:none;paint-order:stroke fill markers"
           id="path950-7-6-23-4"
           cx="94.642906"
           cy="142.86679"
           r="1.1032015" />
        <circle
           style="fill:#0000ff;fill-opacity:1;stroke:#080808;stroke-width:0;stroke-miterlimit:5.1;stroke-dasharray:none;paint-order:stroke fill markers"
           id="path950-7-6-75-7"
           cx="99.970695"
           cy="142.89333"
           r="1.1032015" />
      </g>
    </g>
    <g
       id="g6203">
      <rect
         style="fill:#ffffff;stroke:#080808;stroke-width:1.5;stroke-miterlimit:5.1;stroke-dasharray:none;paint-order:stroke fill markers"
         id="rect234-3-4"
         width="25.690855"
         height="26.703451"
         x="142.60872"
         y="118.2452"
         ry="0" />
      <path
         style="fill:none;fill-opacity:1;stroke:#080808;stroke-width:0.7;stroke-miterlimit:5.1;stroke-dasharray:none;paint-order:stroke fill markers"
         d="m 142.29967,123.67678 h 26.30895"
         id="path1654-68" />
      <path
         style="fill:none;fill-opacity:1;stroke:#080808;stroke-width:0.7;stroke-miterlimit:5.1;stroke-dasharray:none;paint-order:stroke fill markers"
         d="M 142.54655,129.4358 H 168.8555"
         id="path1654-0-8" />
      <path
         style="fill:none;fill-opacity:1;stroke:#080808;stroke-width:0.7;stroke-miterlimit:5.1;stroke-dasharray:none;paint-order:stroke fill markers"
         d="M 142.54655,134.98664 H 168.8555"
         id="path1654-9-4" />
      <path
         style="fill:none;fill-opacity:1;stroke:#080808;stroke-width:0.7;stroke-miterlimit:5.1;stroke-dasharray:none;paint-order:stroke fill markers"
         d="m 142.2424,140.14489 h 26.30896"
         id="path1654-3-3" />
      <path
         style="fill:none;fill-opacity:1;stroke:#080808;stroke-width:0.7;stroke-miterlimit:5.1;stroke-dasharray:none;paint-order:stroke fill markers"
         d="M 147.61482,117.74085 V 145.453"
         id="path1654-6-1" />
      <path
         style="fill:none;fill-opacity:1;stroke:#080808;stroke-width:0.7;stroke-miterlimit:5.1;stroke-dasharray:none;paint-order:stroke fill markers"
         d="M 153.10434,117.74085 V 145.453"
         id="path1654-6-0-4" />
      <path
         style="fill:none;fill-opacity:1;stroke:#080808;stroke-width:0.7;stroke-miterlimit:5.1;stroke-dasharray:none;paint-order:stroke fill markers"
         d="m 158.44989,117.35902 v 27.71215"
         id="path1654-6-6-9" />
      <path
         style="fill:none;fill-opacity:1;stroke:#080808;stroke-width:0.7;stroke-miterlimit:5.1;stroke-dasharray:none;paint-order:stroke fill markers"
         d="m 163.79543,117.35902 v 27.71215"
         id="path1654-6-2-2" />
      <circle
         style="fill:#0000ff;fill-opacity:1;stroke:#080808;stroke-width:0;stroke-miterlimit:5.1;stroke-dasharray:none;paint-order:stroke fill markers"
         id="path950-7-6-0-0"
         cx="153.11565"
         cy="117.65231"
         r="1.1032015" />
      <circle
         style="fill:#0000ff;fill-opacity:1;stroke:#080808;stroke-width:0;stroke-miterlimit:5.1;stroke-dasharray:none;paint-order:stroke fill markers"
         id="path950-7-6-2-6"
         cx="147.61224"
         cy="117.65771"
         r="1.1032015" />
      <circle
         style="fill:#0000ff;fill-opacity:1;stroke:#080808;stroke-width:0;stroke-miterlimit:5.1;stroke-dasharray:none;paint-order:stroke fill markers"
         id="path950-7-6-23-49"
         cx="158.49075"
         cy="117.6113"
         r="1.1032015" />
      <circle
         style="fill:#0000ff;fill-opacity:1;stroke:#080808;stroke-width:0;stroke-miterlimit:5.1;stroke-dasharray:none;paint-order:stroke fill markers"
         id="path950-7-6-75-5"
         cx="163.81856"
         cy="117.63783"
         r="1.1032015" />
      <circle
         style="fill:#0000ff;fill-opacity:1;stroke:#080808;stroke-width:0;stroke-miterlimit:5.1;stroke-dasharray:none;paint-order:stroke fill markers"
         id="path950-7-6-0-9-0"
         cx="153.10272"
         cy="123.60635"
         r="1.1032015" />
      <circle
         style="fill:#0000ff;fill-opacity:1;stroke:#080808;stroke-width:0;stroke-miterlimit:5.1;stroke-dasharray:none;paint-order:stroke fill markers"
         id="path950-7-6-22-4"
         cx="142.18774"
         cy="123.7338"
         r="1.1032015" />
      <circle
         style="fill:#0000ff;fill-opacity:1;stroke:#080808;stroke-width:0;stroke-miterlimit:5.1;stroke-dasharray:none;paint-order:stroke fill markers"
         id="path950-7-6-8-8-8"
         cx="168.66617"
         cy="123.51823"
         r="1.1032015" />
      <circle
         style="fill:#0000ff;fill-opacity:1;stroke:#080808;stroke-width:0;stroke-miterlimit:5.1;stroke-dasharray:none;paint-order:stroke fill markers"
         id="path950-7-6-2-9-7"
         cx="147.59932"
         cy="123.61175"
         r="1.1032015" />
      <circle
         style="fill:#0000ff;fill-opacity:1;stroke:#080808;stroke-width:0;stroke-miterlimit:5.1;stroke-dasharray:none;paint-order:stroke fill markers"
         id="path950-7-6-23-7-1"
         cx="158.47783"
         cy="123.56535"
         r="1.1032015" />
      <circle
         style="fill:#0000ff;fill-opacity:1;stroke:#080808;stroke-width:0;stroke-miterlimit:5.1;stroke-dasharray:none;paint-order:stroke fill markers"
         id="path950-7-6-75-3-7"
         cx="163.80563"
         cy="123.59187"
         r="1.1032015" />
      <circle
         style="fill:#0000ff;fill-opacity:1;stroke:#080808;stroke-width:0;stroke-miterlimit:5.1;stroke-dasharray:none;paint-order:stroke fill markers"
         id="path950-7-6-0-6-2"
         cx="153.10976"
         cy="129.41725"
         r="1.1032015" />
      <circle
         style="fill:#0000ff;fill-opacity:1;stroke:#080808;stroke-width:0;stroke-miterlimit:5.1;stroke-dasharray:none;paint-order:stroke fill markers"
         id="path950-7-6-1-7"
         cx="142.19479"
         cy="129.54468"
         r="1.1032015" />
      <circle
         style="fill:#0000ff;fill-opacity:1;stroke:#080808;stroke-width:0;stroke-miterlimit:5.1;stroke-dasharray:none;paint-order:stroke fill markers"
         id="path950-7-6-8-2-2"
         cx="168.63475"
         cy="129.3145"
         r="1.1032015" />
      <circle
         style="fill:#0000ff;fill-opacity:1;stroke:#080808;stroke-width:0;stroke-miterlimit:5.1;stroke-dasharray:none;paint-order:stroke fill markers"
         id="path950-7-6-2-93-2"
         cx="147.60637"
         cy="129.42262"
         r="1.1032015" />
      <circle
         style="fill:#0000ff;fill-opacity:1;stroke:#080808;stroke-width:0;stroke-miterlimit:5.1;stroke-dasharray:none;paint-order:stroke fill markers"
         id="path950-7-6-23-1-6"
         cx="158.48488"
         cy="129.37624"
         r="1.1032015" />
      <circle
         style="fill:#0000ff;fill-opacity:1;stroke:#080808;stroke-width:0;stroke-miterlimit:5.1;stroke-dasharray:none;paint-order:stroke fill markers"
         id="path950-7-6-75-9-1"
         cx="163.81268"
         cy="129.40276"
         r="1.1032015" />
      <circle
         style="fill:#0000ff;fill-opacity:1;stroke:#080808;stroke-width:0;stroke-miterlimit:5.1;stroke-dasharray:none;paint-order:stroke fill markers"
         id="path950-7-6-0-4-0"
         cx="153.13223"
         cy="134.95695"
         r="1.1032015" />
      <circle
         style="fill:#0000ff;fill-opacity:1;stroke:#080808;stroke-width:0;stroke-miterlimit:5.1;stroke-dasharray:none;paint-order:stroke fill markers"
         id="path950-7-6-78-6"
         cx="142.21727"
         cy="135.0844"
         r="1.1032015" />
      <circle
         style="fill:#0000ff;fill-opacity:1;stroke:#080808;stroke-width:0;stroke-miterlimit:5.1;stroke-dasharray:none;paint-order:stroke fill markers"
         id="path950-7-6-8-4-1"
         cx="168.72467"
         cy="134.7811"
         r="1.1032015" />
      <circle
         style="fill:#0000ff;fill-opacity:1;stroke:#080808;stroke-width:0;stroke-miterlimit:5.1;stroke-dasharray:none;paint-order:stroke fill markers"
         id="path950-7-6-2-5-5"
         cx="147.62883"
         cy="134.96234"
         r="1.1032015" />
      <circle
         style="fill:#0000ff;fill-opacity:1;stroke:#080808;stroke-width:0;stroke-miterlimit:5.1;stroke-dasharray:none;paint-order:stroke fill markers"
         id="path950-7-6-23-0-9"
         cx="158.50735"
         cy="134.91594"
         r="1.1032015" />
      <circle
         style="fill:#0000ff;fill-opacity:1;stroke:#080808;stroke-width:0;stroke-miterlimit:5.1;stroke-dasharray:none;paint-order:stroke fill markers"
         id="path950-7-6-75-36-4"
         cx="163.83514"
         cy="134.94247"
         r="1.1032015" />
      <circle
         style="fill:#0000ff;fill-opacity:1;stroke:#080808;stroke-width:0;stroke-miterlimit:5.1;stroke-dasharray:none;paint-order:stroke fill markers"
         id="path950-7-6-0-1-9"
         cx="153.07619"
         cy="140.21284"
         r="1.1032015" />
      <circle
         style="fill:#0000ff;fill-opacity:1;stroke:#080808;stroke-width:0;stroke-miterlimit:5.1;stroke-dasharray:none;paint-order:stroke fill markers"
         id="path950-7-6-06-0"
         cx="142.16121"
         cy="140.34029"
         r="1.1032015" />
      <circle
         style="fill:#0000ff;fill-opacity:1;stroke:#080808;stroke-width:0;stroke-miterlimit:5.1;stroke-dasharray:none;paint-order:stroke fill markers"
         id="path950-7-6-8-3-9"
         cx="168.64362"
         cy="140.10863"
         r="1.1032015" />
      <circle
         style="fill:#0000ff;fill-opacity:1;stroke:#080808;stroke-width:0;stroke-miterlimit:5.1;stroke-dasharray:none;paint-order:stroke fill markers"
         id="path950-7-6-2-2-1"
         cx="147.57278"
         cy="140.21823"
         r="1.1032015" />
      <circle
         style="fill:#0000ff;fill-opacity:1;stroke:#080808;stroke-width:0;stroke-miterlimit:5.1;stroke-dasharray:none;paint-order:stroke fill markers"
         id="path950-7-6-23-06-7"
         cx="158.45129"
         cy="140.17183"
         r="1.1032015" />
      <circle
         style="fill:#0000ff;fill-opacity:1;stroke:#080808;stroke-width:0;stroke-miterlimit:5.1;stroke-dasharray:none;paint-order:stroke fill markers"
         id="path950-7-6-75-1-7"
         cx="163.7791"
         cy="140.19836"
         r="1.1032015" />
      <circle
         style="fill:#0000ff;fill-opacity:1;stroke:#080808;stroke-width:0;stroke-miterlimit:5.1;stroke-dasharray:none;paint-order:stroke fill markers"
         id="path950-7-6-0-93-1"
         cx="153.12952"
         cy="145.3582"
         r="1.1032015" />
      <circle
         style="fill:#0000ff;fill-opacity:1;stroke:#080808;stroke-width:0;stroke-miterlimit:5.1;stroke-dasharray:none;paint-order:stroke fill markers"
         id="path950-7-6-2-25-7"
         cx="147.62613"
         cy="145.36359"
         r="1.1032015" />
      <circle
         style="fill:#0000ff;fill-opacity:1;stroke:#080808;stroke-width:0;stroke-miterlimit:5.1;stroke-dasharray:none;paint-order:stroke fill markers"
         id="path950-7-6-23-4-7"
         cx="158.50464"
         cy="145.31718"
         r="1.1032015" />
      <circle
         style="fill:#0000ff;fill-opacity:1;stroke:#080808;stroke-width:0;stroke-miterlimit:5.1;stroke-dasharray:none;paint-order:stroke fill markers"
         id="path950-7-6-75-7-6"
         cx="163.83243"
         cy="145.34372"
         r="1.1032015" />
      <circle
         style="fill:#0000ff;fill-opacity:1;stroke:#080808;stroke-width:0;stroke-miterlimit:5.1;stroke-dasharray:none;paint-order:stroke fill markers"
         id="path950-7-6-75-7-6-7"
         cx="142.18774"
         cy="117.81924"
         r="1.1032015" />
      <circle
         style="fill:#0000ff;fill-opacity:1;stroke:#080808;stroke-width:0;stroke-miterlimit:5.1;stroke-dasharray:none;paint-order:stroke fill markers"
         id="path950-7-6-75-7-6-3"
         cx="168.66562"
         cy="117.65972"
         r="1.1032015" />
      <circle
         style="fill:#0000ff;fill-opacity:1;stroke:#080808;stroke-width:0;stroke-miterlimit:5.1;stroke-dasharray:none;paint-order:stroke fill markers"
         id="path950-7-6-75-7-6-6"
         cx="142.41226"
         cy="145.37962"
         r="1.1032015" />
      <circle
         style="fill:#0000ff;fill-opacity:1;stroke:#080808;stroke-width:0;stroke-miterlimit:5.1;stroke-dasharray:none;paint-order:stroke fill markers"
         id="path950-7-6-75-7-6-5"
         cx="168.58055"
         cy="145.25146"
         r="1.1032015" />
    </g>
    <path
       style="fill:#0000ff;fill-opacity:1;stroke:#080808;stroke-width:0.5;stroke-miterlimit:5.1;stroke-dasharray:none;marker-end:url(#Arrow2);paint-order:stroke fill markers"
       d="m 64.499668,132.86578 c 16.920494,0 16.920494,0 16.920494,0"
       id="path3218" />
    <path
       style="fill:#0000ff;fill-opacity:1;stroke:#080808;stroke-width:0.5;stroke-miterlimit:5.1;stroke-dasharray:none;marker-end:url(#Arrow2-6);paint-order:stroke fill markers"
       d="m 118.3827,132.86578 c 16.92049,0 16.92049,0 16.92049,0"
       id="path3218-9" />
    <g
       transform="matrix(0.705556,0,0,0.705556,69.621946,122.37209)"
       ns3:version="1.8.1"
       ns3:texconverter="pdflatex"
       ns3:pdfconverter="inkscape"
       ns3:text="$\\widehat{\\boldsymbol{u}}_h^L$"
       ns3:preamble="/home/tgxus34/.config/inkscape/extensions/textext/default_packages.tex"
       ns3:scale="2.0"
       ns3:alignment="middle center"
       ns3:stroke-to-path="0"
       ns3:inkscapeversion="1.2.1"
       ns3:jacobian_sqrt="0.705556"
       id="g3580">
      <defs
         id="id-b844ab54-5fbe-4125-8434-239100e3b8c5">
        <g
           id="id-8ca6883c-dc07-4c54-b39b-39aed02e5f41">
          <symbol
             overflow="visible"
             id="id-1923a25a-ffb8-41bc-8565-9d8021217b33">
            <path
               style="stroke:none"
               d=""
               id="id-e2699af9-01db-4210-a4f2-39107a0a1437" />
          </symbol>
          <symbol
             overflow="visible"
             id="id-a2980dec-1188-45bc-9cca-a6de616a9813">
            <path
               style="stroke:none"
               d="m 2.765625,-6.828125 2.703125,1.21875 0.125,-0.21875 -2.828125,-1.59375 -2.8125,1.59375 0.109375,0.21875 z m 0,0"
               id="id-898bb94e-0dd4-4b95-8a43-d3f05b870c04" />
          </symbol>
          <symbol
             overflow="visible"
             id="id-e3b3bd81-a374-4144-b8e9-1748db443ef2">
            <path
               style="stroke:none"
               d=""
               id="id-8e6e0690-68df-4f10-9af0-b07a04c5cc9b" />
          </symbol>
          <symbol
             overflow="visible"
             id="id-659812ea-8294-4d8a-97f9-6955c1e44158">
            <path
               style="stroke:none"
               d="m 5.609375,-3.15625 c 0.078125,-0.28125 0.1875,-0.765625 0.1875,-0.828125 0,-0.21875 -0.15625,-0.4375 -0.46875,-0.4375 -0.15625,0 -0.515625,0.078125 -0.65625,0.53125 -0.03125,0.125 -0.484375,1.9375 -0.5625,2.265625 -0.0625,0.234375 -0.125,0.515625 -0.15625,0.703125 C 3.78125,-0.6875 3.390625,-0.28125 2.875,-0.28125 c -0.578125,0 -0.59375,-0.5 -0.59375,-0.71875 0,-0.609375 0.3125,-1.390625 0.59375,-2.109375 C 2.96875,-3.375 3,-3.4375 3,-3.609375 3,-4.1875 2.421875,-4.5 1.875,-4.5 c -1.0625,0 -1.5625,1.34375 -1.5625,1.546875 0,0.140625 0.15625,0.140625 0.25,0.140625 0.109375,0 0.1875,0 0.21875,-0.125 0.328125,-1.109375 0.875,-1.203125 1.03125,-1.203125 0.078125,0 0.171875,0 0.171875,0.203125 0,0.234375 -0.125,0.515625 -0.15625,0.625 -0.421875,1.046875 -0.609375,1.609375 -0.609375,2.09375 0,1.140625 1,1.296875 1.578125,1.296875 0.296875,0 0.734375,-0.03125 1.265625,-0.546875 0.328125,0.484375 0.90625,0.546875 1.140625,0.546875 0.375,0 0.65625,-0.203125 0.875,-0.5625 0.234375,-0.40625 0.375,-0.9375 0.375,-0.984375 0,-0.140625 -0.15625,-0.140625 -0.25,-0.140625 -0.109375,0 -0.140625,0 -0.1875,0.046875 -0.03125,0.015625 -0.03125,0.03125 -0.078125,0.28125 -0.203125,0.78125 -0.421875,1 -0.6875,1 -0.140625,0 -0.21875,-0.09375 -0.21875,-0.359375 0,-0.171875 0.03125,-0.34375 0.125,-0.734375 0.078125,-0.28125 0.171875,-0.671875 0.234375,-0.890625 z m 0,0"
               id="id-5085b25c-87d5-4736-97cd-b675204889e2" />
          </symbol>
          <symbol
             overflow="visible"
             id="id-61e154c9-f9d3-4d78-969c-fe6b6f51c14c">
            <path
               style="stroke:none"
               d=""
               id="id-85bfc34e-d30e-4648-a793-3db7ad939586" />
          </symbol>
          <symbol
             overflow="visible"
             id="id-97150dc3-b637-40ec-8c33-95859c480f3f">
            <path
               style="stroke:none"
               d="m 2.875,-4.1875 c 0.0625,-0.25 0.078125,-0.328125 0.71875,-0.328125 0.21875,0 0.28125,0 0.28125,-0.140625 0,-0.015625 0,-0.109375 -0.109375,-0.109375 -0.15625,0 -0.34375,0.015625 -0.515625,0.03125 -0.171875,0 -0.390625,0 -0.5625,0 -0.140625,0 -0.328125,0 -0.484375,0 -0.140625,0 -0.3125,-0.03125 -0.453125,-0.03125 -0.03125,0 -0.140625,0 -0.140625,0.15625 0,0.09375 0.078125,0.09375 0.21875,0.09375 0.015625,0 0.140625,0 0.265625,0.015625 0.15625,0.015625 0.171875,0.03125 0.171875,0.109375 0,0 0,0.046875 -0.03125,0.140625 l -0.9375,3.703125 C 1.234375,-0.3125 1.21875,-0.25 0.6875,-0.25 c -0.109375,0 -0.203125,0 -0.203125,0.140625 C 0.484375,0 0.5625,0 0.6875,0 h 3.5 c 0.1875,0 0.1875,0 0.25,-0.140625 0.0625,-0.1875 0.59375,-1.53125 0.59375,-1.59375 0,-0.015625 -0.015625,-0.09375 -0.125,-0.09375 -0.078125,0 -0.09375,0.03125 -0.140625,0.140625 C 4.5,-1.03125 4.1875,-0.25 2.921875,-0.25 H 2.125 c -0.203125,0 -0.21875,-0.015625 -0.21875,-0.078125 0,0 0,-0.03125 0.03125,-0.140625 z m 0,0"
               id="id-81260f59-4333-4be8-a77f-3481a0ea88cf" />
          </symbol>
          <symbol
             overflow="visible"
             id="id-c5c178e2-32cf-4349-8469-19f9c84d9bc3">
            <path
               style="stroke:none"
               d="m 2.1875,-4.625 c 0,-0.015625 0.015625,-0.109375 0.015625,-0.109375 0,-0.046875 -0.015625,-0.109375 -0.109375,-0.109375 -0.140625,0 -0.71875,0.0625 -0.890625,0.078125 -0.046875,0 -0.15625,0.015625 -0.15625,0.15625 0,0.09375 0.109375,0.09375 0.1875,0.09375 0.328125,0 0.328125,0.0625 0.328125,0.109375 0,0.046875 -0.015625,0.09375 -0.015625,0.15625 L 0.5625,-0.3125 c -0.046875,0.125 -0.046875,0.140625 -0.046875,0.15625 0,0.109375 0.09375,0.21875 0.25,0.21875 0.078125,0 0.203125,-0.03125 0.28125,-0.171875 C 1.0625,-0.15625 1.125,-0.40625 1.15625,-0.546875 l 0.171875,-0.625 C 1.34375,-1.28125 1.421875,-1.546875 1.4375,-1.640625 1.5,-1.90625 1.5,-1.921875 1.640625,-2.140625 1.875,-2.484375 2.21875,-2.875 2.765625,-2.875 c 0.390625,0 0.40625,0.3125 0.40625,0.484375 0,0.421875 -0.296875,1.1875 -0.40625,1.484375 -0.078125,0.203125 -0.109375,0.265625 -0.109375,0.375 0,0.375 0.3125,0.59375 0.65625,0.59375 0.703125,0 1.015625,-0.953125 1.015625,-1.0625 0,-0.09375 -0.09375,-0.09375 -0.125,-0.09375 -0.09375,0 -0.09375,0.046875 -0.125,0.125 -0.15625,0.5625 -0.46875,0.84375 -0.734375,0.84375 -0.15625,0 -0.1875,-0.09375 -0.1875,-0.25 0,-0.15625 0.046875,-0.25 0.171875,-0.5625 C 3.40625,-1.15625 3.6875,-1.890625 3.6875,-2.28125 c 0,-0.109375 0,-0.40625 -0.25,-0.609375 -0.125,-0.078125 -0.328125,-0.1875 -0.65625,-0.1875 -0.5,0 -0.875,0.28125 -1.125,0.578125 z m 0,0"
               id="id-4ae91789-b642-4169-b79e-1300d7ee73e2" />
          </symbol>
        </g>
      </defs>
      <g
         id="id-0a40ce0f-928b-4354-8d68-2e06a7296acb"
         transform="translate(-149.025,-125.128)">
        <g
           style="fill:#000000;fill-opacity:1"
           id="id-1f767649-6d81-44e8-a94d-77782978f4ba">
          <g
             transform="translate(149.337,134.626)"
             id="g4639">
            <path
               style="stroke:none"
               d="m 2.765625,-6.828125 2.703125,1.21875 0.125,-0.21875 -2.828125,-1.59375 -2.8125,1.59375 0.109375,0.21875 z m 0,0"
               id="id-0160facd-d01c-4d00-b4f8-c8f64a441b64" />
          </g>
        </g>
        <g
           style="fill:#000000;fill-opacity:1"
           id="id-4d28f2e4-f378-4a8b-891a-5a5168074646">
          <g
             transform="translate(148.712,134.765)"
             id="g4643">
            <path
               style="stroke:none"
               d="m 5.609375,-3.15625 c 0.078125,-0.28125 0.1875,-0.765625 0.1875,-0.828125 0,-0.21875 -0.15625,-0.4375 -0.46875,-0.4375 -0.15625,0 -0.515625,0.078125 -0.65625,0.53125 -0.03125,0.125 -0.484375,1.9375 -0.5625,2.265625 -0.0625,0.234375 -0.125,0.515625 -0.15625,0.703125 C 3.78125,-0.6875 3.390625,-0.28125 2.875,-0.28125 c -0.578125,0 -0.59375,-0.5 -0.59375,-0.71875 0,-0.609375 0.3125,-1.390625 0.59375,-2.109375 C 2.96875,-3.375 3,-3.4375 3,-3.609375 3,-4.1875 2.421875,-4.5 1.875,-4.5 c -1.0625,0 -1.5625,1.34375 -1.5625,1.546875 0,0.140625 0.15625,0.140625 0.25,0.140625 0.109375,0 0.1875,0 0.21875,-0.125 0.328125,-1.109375 0.875,-1.203125 1.03125,-1.203125 0.078125,0 0.171875,0 0.171875,0.203125 0,0.234375 -0.125,0.515625 -0.15625,0.625 -0.421875,1.046875 -0.609375,1.609375 -0.609375,2.09375 0,1.140625 1,1.296875 1.578125,1.296875 0.296875,0 0.734375,-0.03125 1.265625,-0.546875 0.328125,0.484375 0.90625,0.546875 1.140625,0.546875 0.375,0 0.65625,-0.203125 0.875,-0.5625 0.234375,-0.40625 0.375,-0.9375 0.375,-0.984375 0,-0.140625 -0.15625,-0.140625 -0.25,-0.140625 -0.109375,0 -0.140625,0 -0.1875,0.046875 -0.03125,0.015625 -0.03125,0.03125 -0.078125,0.28125 -0.203125,0.78125 -0.421875,1 -0.6875,1 -0.140625,0 -0.21875,-0.09375 -0.21875,-0.359375 0,-0.171875 0.03125,-0.34375 0.125,-0.734375 0.078125,-0.28125 0.171875,-0.671875 0.234375,-0.890625 z m 0,0"
               id="id-b0ec99e2-11d6-4dd2-ad3b-2b9fa981390e" />
          </g>
        </g>
        <g
           style="fill:#000000;fill-opacity:1"
           id="id-0f5cc231-521b-486a-b395-15b2fe0b0515">
          <g
             transform="translate(155.497,129.894)"
             id="g4647">
            <path
               style="stroke:none"
               d="m 2.875,-4.1875 c 0.0625,-0.25 0.078125,-0.328125 0.71875,-0.328125 0.21875,0 0.28125,0 0.28125,-0.140625 0,-0.015625 0,-0.109375 -0.109375,-0.109375 -0.15625,0 -0.34375,0.015625 -0.515625,0.03125 -0.171875,0 -0.390625,0 -0.5625,0 -0.140625,0 -0.328125,0 -0.484375,0 -0.140625,0 -0.3125,-0.03125 -0.453125,-0.03125 -0.03125,0 -0.140625,0 -0.140625,0.15625 0,0.09375 0.078125,0.09375 0.21875,0.09375 0.015625,0 0.140625,0 0.265625,0.015625 0.15625,0.015625 0.171875,0.03125 0.171875,0.109375 0,0 0,0.046875 -0.03125,0.140625 l -0.9375,3.703125 C 1.234375,-0.3125 1.21875,-0.25 0.6875,-0.25 c -0.109375,0 -0.203125,0 -0.203125,0.140625 C 0.484375,0 0.5625,0 0.6875,0 h 3.5 c 0.1875,0 0.1875,0 0.25,-0.140625 0.0625,-0.1875 0.59375,-1.53125 0.59375,-1.59375 0,-0.015625 -0.015625,-0.09375 -0.125,-0.09375 -0.078125,0 -0.09375,0.03125 -0.140625,0.140625 C 4.5,-1.03125 4.1875,-0.25 2.921875,-0.25 H 2.125 c -0.203125,0 -0.21875,-0.015625 -0.21875,-0.078125 0,0 0,-0.03125 0.03125,-0.140625 z m 0,0"
               id="id-22bb413c-1df2-4197-9f55-07ee56ee7fbc" />
          </g>
        </g>
        <g
           style="fill:#000000;fill-opacity:1"
           id="id-7e9d5706-e5f5-4c7b-b46d-bb28daa115c3">
          <g
             transform="translate(155.497,137.228)"
             id="g4651">
            <path
               style="stroke:none"
               d="m 2.1875,-4.625 c 0,-0.015625 0.015625,-0.109375 0.015625,-0.109375 0,-0.046875 -0.015625,-0.109375 -0.109375,-0.109375 -0.140625,0 -0.71875,0.0625 -0.890625,0.078125 -0.046875,0 -0.15625,0.015625 -0.15625,0.15625 0,0.09375 0.109375,0.09375 0.1875,0.09375 0.328125,0 0.328125,0.0625 0.328125,0.109375 0,0.046875 -0.015625,0.09375 -0.015625,0.15625 L 0.5625,-0.3125 c -0.046875,0.125 -0.046875,0.140625 -0.046875,0.15625 0,0.109375 0.09375,0.21875 0.25,0.21875 0.078125,0 0.203125,-0.03125 0.28125,-0.171875 C 1.0625,-0.15625 1.125,-0.40625 1.15625,-0.546875 l 0.171875,-0.625 C 1.34375,-1.28125 1.421875,-1.546875 1.4375,-1.640625 1.5,-1.90625 1.5,-1.921875 1.640625,-2.140625 1.875,-2.484375 2.21875,-2.875 2.765625,-2.875 c 0.390625,0 0.40625,0.3125 0.40625,0.484375 0,0.421875 -0.296875,1.1875 -0.40625,1.484375 -0.078125,0.203125 -0.109375,0.265625 -0.109375,0.375 0,0.375 0.3125,0.59375 0.65625,0.59375 0.703125,0 1.015625,-0.953125 1.015625,-1.0625 0,-0.09375 -0.09375,-0.09375 -0.125,-0.09375 -0.09375,0 -0.09375,0.046875 -0.125,0.125 -0.15625,0.5625 -0.46875,0.84375 -0.734375,0.84375 -0.15625,0 -0.1875,-0.09375 -0.1875,-0.25 0,-0.15625 0.046875,-0.25 0.171875,-0.5625 C 3.40625,-1.15625 3.6875,-1.890625 3.6875,-2.28125 c 0,-0.109375 0,-0.40625 -0.25,-0.609375 -0.125,-0.078125 -0.328125,-0.1875 -0.65625,-0.1875 -0.5,0 -0.875,0.28125 -1.125,0.578125 z m 0,0"
               id="id-9b4dfdfa-5bc0-4a7c-aba8-3a31fa9f62b0" />
          </g>
        </g>
      </g>
    </g>
    <g
       transform="matrix(0.705556,0,0,0.705556,119.57889,124.83718)"
       ns3:version="1.8.1"
       ns3:texconverter="pdflatex"
       ns3:pdfconverter="inkscape"
       ns3:text="GNN"
       ns3:preamble="/home/tgxus34/.config/inkscape/extensions/textext/default_packages.tex"
       ns3:scale="2.0"
       ns3:alignment="middle center"
       ns3:stroke-to-path="0"
       ns3:inkscapeversion="1.2.1"
       ns3:jacobian_sqrt="0.705556"
       id="g5757">
      <defs
         id="id-7d8cf2d5-33c4-48b0-913a-e30e1c11b302">
        <g
           id="id-32a41144-a1af-44d8-9776-d49c0758d92e">
          <symbol
             overflow="visible"
             id="id-4f751f21-c431-4864-beda-5be216409d7c">
            <path
               style="stroke:none;stroke-width:0"
               d=""
               id="id-7bb6f8f6-d3c1-405a-bcf0-6aef67a182f6" />
          </symbol>
          <symbol
             overflow="visible"
             id="id-573cb9a7-ecda-4f3d-bdf9-f1a4a9af7edc">
            <path
               style="stroke:none;stroke-width:0"
               d="m 5.90625,-0.625 c 0.140625,0.21875 0.53125,0.609375 0.640625,0.609375 0.09375,0 0.09375,-0.078125 0.09375,-0.21875 V -1.96875 c 0,-0.390625 0.03125,-0.4375 0.6875,-0.4375 v -0.3125 c -0.375,0 -0.921875,0.03125 -1.21875,0.03125 -0.390625,0 -1.25,0 -1.609375,-0.03125 v 0.3125 H 4.828125 C 5.71875,-2.40625 5.75,-2.296875 5.75,-1.9375 v 0.640625 c 0,1.125 -1.265625,1.203125 -1.546875,1.203125 -0.640625,0 -2.625,-0.34375 -2.625,-3.3125 0,-2.984375 1.96875,-3.3125 2.5625,-3.3125 1.078125,0 1.984375,0.890625 2.171875,2.359375 0.03125,0.140625 0.03125,0.171875 0.171875,0.171875 0.15625,0 0.15625,-0.03125 0.15625,-0.234375 V -6.78125 c 0,-0.171875 0,-0.25 -0.109375,-0.25 -0.046875,0 -0.078125,0 -0.15625,0.125 l -0.5,0.734375 C 5.546875,-6.484375 5.015625,-7.03125 4.03125,-7.03125 c -1.859375,0 -3.46875,1.578125 -3.46875,3.625 0,2.046875 1.59375,3.625 3.484375,3.625 0.734375,0 1.53125,-0.265625 1.859375,-0.84375 z m 0,0"
               id="id-f2312475-cfcc-4f04-8587-5b103beb9082" />
          </symbol>
          <symbol
             overflow="visible"
             id="id-21719304-483f-4cb4-b987-d947ae696545">
            <path
               style="stroke:none;stroke-width:0"
               d="M 2.3125,-6.671875 C 2.21875,-6.796875 2.21875,-6.8125 2.03125,-6.8125 H 0.328125 V -6.5 H 0.625 c 0.140625,0 0.34375,0.015625 0.484375,0.015625 0.234375,0.03125 0.25,0.046875 0.25,0.234375 v 5.203125 c 0,0.265625 0,0.734375 -1.03125,0.734375 V 0 C 0.671875,-0.015625 1.171875,-0.03125 1.5,-0.03125 c 0.328125,0 0.8125,0.015625 1.15625,0.03125 v -0.3125 c -1.015625,0 -1.015625,-0.46875 -1.015625,-0.734375 v -5.1875 c 0.046875,0.046875 0.046875,0.0625 0.09375,0.125 L 5.796875,-0.125 C 5.890625,-0.015625 5.90625,0 5.96875,0 6.109375,0 6.109375,-0.0625 6.109375,-0.265625 v -5.5 c 0,-0.265625 0,-0.734375 1.03125,-0.734375 v -0.3125 c -0.359375,0.015625 -0.84375,0.03125 -1.171875,0.03125 -0.328125,0 -0.8125,-0.015625 -1.15625,-0.03125 V -6.5 c 1.015625,0 1.015625,0.46875 1.015625,0.734375 V -1.5 Z m 0,0"
               id="id-dd5563dd-fb1e-45f2-8060-a9edbd051c26" />
          </symbol>
        </g>
      </defs>
      <g
         id="id-37bcab6a-3489-4c58-be86-5d32407b9609"
         transform="translate(-149.275,-127.734)">
        <g
           style="fill:#000000;fill-opacity:1"
           id="id-7daed6c2-f956-45e1-835b-06b03c196478">
          <g
             transform="translate(148.712,134.765)"
             id="g5747">
            <path
               style="stroke:none;stroke-width:0"
               d="m 5.90625,-0.625 c 0.140625,0.21875 0.53125,0.609375 0.640625,0.609375 0.09375,0 0.09375,-0.078125 0.09375,-0.21875 V -1.96875 c 0,-0.390625 0.03125,-0.4375 0.6875,-0.4375 v -0.3125 c -0.375,0 -0.921875,0.03125 -1.21875,0.03125 -0.390625,0 -1.25,0 -1.609375,-0.03125 v 0.3125 H 4.828125 C 5.71875,-2.40625 5.75,-2.296875 5.75,-1.9375 v 0.640625 c 0,1.125 -1.265625,1.203125 -1.546875,1.203125 -0.640625,0 -2.625,-0.34375 -2.625,-3.3125 0,-2.984375 1.96875,-3.3125 2.5625,-3.3125 1.078125,0 1.984375,0.890625 2.171875,2.359375 0.03125,0.140625 0.03125,0.171875 0.171875,0.171875 0.15625,0 0.15625,-0.03125 0.15625,-0.234375 V -6.78125 c 0,-0.171875 0,-0.25 -0.109375,-0.25 -0.046875,0 -0.078125,0 -0.15625,0.125 l -0.5,0.734375 C 5.546875,-6.484375 5.015625,-7.03125 4.03125,-7.03125 c -1.859375,0 -3.46875,1.578125 -3.46875,3.625 0,2.046875 1.59375,3.625 3.484375,3.625 0.734375,0 1.53125,-0.265625 1.859375,-0.84375 z m 0,0"
               id="id-99fa859f-cc38-46f7-bcc1-8e29dccbae85" />
          </g>
          <g
             transform="translate(156.53,134.765)"
             id="g5750">
            <path
               style="stroke:none;stroke-width:0"
               d="M 2.3125,-6.671875 C 2.21875,-6.796875 2.21875,-6.8125 2.03125,-6.8125 H 0.328125 V -6.5 H 0.625 c 0.140625,0 0.34375,0.015625 0.484375,0.015625 0.234375,0.03125 0.25,0.046875 0.25,0.234375 v 5.203125 c 0,0.265625 0,0.734375 -1.03125,0.734375 V 0 C 0.671875,-0.015625 1.171875,-0.03125 1.5,-0.03125 c 0.328125,0 0.8125,0.015625 1.15625,0.03125 v -0.3125 c -1.015625,0 -1.015625,-0.46875 -1.015625,-0.734375 v -5.1875 c 0.046875,0.046875 0.046875,0.0625 0.09375,0.125 L 5.796875,-0.125 C 5.890625,-0.015625 5.90625,0 5.96875,0 6.109375,0 6.109375,-0.0625 6.109375,-0.265625 v -5.5 c 0,-0.265625 0,-0.734375 1.03125,-0.734375 v -0.3125 c -0.359375,0.015625 -0.84375,0.03125 -1.171875,0.03125 -0.328125,0 -0.8125,-0.015625 -1.15625,-0.03125 V -6.5 c 1.015625,0 1.015625,0.46875 1.015625,0.734375 V -1.5 Z m 0,0"
               id="id-92ea9f0e-d00f-47e8-be8d-30014b34b4c8" />
          </g>
          <g
             transform="translate(164.002,134.765)"
             id="g5753">
            <path
               style="stroke:none;stroke-width:0"
               d="M 2.3125,-6.671875 C 2.21875,-6.796875 2.21875,-6.8125 2.03125,-6.8125 H 0.328125 V -6.5 H 0.625 c 0.140625,0 0.34375,0.015625 0.484375,0.015625 0.234375,0.03125 0.25,0.046875 0.25,0.234375 v 5.203125 c 0,0.265625 0,0.734375 -1.03125,0.734375 V 0 C 0.671875,-0.015625 1.171875,-0.03125 1.5,-0.03125 c 0.328125,0 0.8125,0.015625 1.15625,0.03125 v -0.3125 c -1.015625,0 -1.015625,-0.46875 -1.015625,-0.734375 v -5.1875 c 0.046875,0.046875 0.046875,0.0625 0.09375,0.125 L 5.796875,-0.125 C 5.890625,-0.015625 5.90625,0 5.96875,0 6.109375,0 6.109375,-0.0625 6.109375,-0.265625 v -5.5 c 0,-0.265625 0,-0.734375 1.03125,-0.734375 v -0.3125 c -0.359375,0.015625 -0.84375,0.03125 -1.171875,0.03125 -0.328125,0 -0.8125,-0.015625 -1.15625,-0.03125 V -6.5 c 1.015625,0 1.015625,0.46875 1.015625,0.734375 V -1.5 Z m 0,0"
               id="id-0267928e-4e9e-400c-8d68-060dbbd463e9" />
          </g>
        </g>
      </g>
    </g>
  </g>
</svg>
